<svg width="16" height="16" viewBox="0 0 16 16" fill="none" xmlns="http://www.w3.org/2000/svg">
<rect width="16" height="16" rx="8" fill="white"/>
<path fill-rule="evenodd" clip-rule="evenodd" d="M2 4.44444C2 4.32657 2.04863 4.21352 2.13518 4.13017C2.22174 4.04683 2.33913 4 2.46154 4H13.5385C13.6609 4 13.7783 4.04683 13.8648 4.13017C13.9514 4.21352 14 4.32657 14 4.44444C14 4.56232 13.9514 4.67536 13.8648 4.75871C13.7783 4.84206 13.6609 4.88889 13.5385 4.88889H2.46154C2.33913 4.88889 2.22174 4.84206 2.13518 4.75871C2.04863 4.67536 2 4.56232 2 4.44444ZM2 6.81481C2 6.69694 2.04863 6.58389 2.13518 6.50055C2.22174 6.4172 2.33913 6.37037 2.46154 6.37037H13.5385C13.6609 6.37037 13.7783 6.4172 13.8648 6.50055C13.9514 6.58389 14 6.69694 14 6.81481C14 6.93269 13.9514 7.04573 13.8648 7.12908C13.7783 7.21243 13.6609 7.25926 13.5385 7.25926H2.46154C2.33913 7.25926 2.22174 7.21243 2.13518 7.12908C2.04863 7.04573 2 6.93269 2 6.81481ZM2 9.18519C2 9.06731 2.04863 8.95427 2.13518 8.87092C2.22174 8.78757 2.33913 8.74074 2.46154 8.74074H7.38462C7.50702 8.74074 7.62442 8.78757 7.71097 8.87092C7.79753 8.95427 7.84615 9.06731 7.84615 9.18519C7.84615 9.30306 7.79753 9.41611 7.71097 9.49945C7.62442 9.5828 7.50702 9.62963 7.38462 9.62963H2.46154C2.33913 9.62963 2.22174 9.5828 2.13518 9.49945C2.04863 9.41611 2 9.30306 2 9.18519ZM2 11.5556C2 11.4377 2.04863 11.3246 2.13518 11.2413C2.22174 11.1579 2.33913 11.1111 2.46154 11.1111H7.38462C7.50702 11.1111 7.62442 11.1579 7.71097 11.2413C7.79753 11.3246 7.84615 11.4377 7.84615 11.5556C7.84615 11.6734 7.79753 11.7865 7.71097 11.8698C7.62442 11.9532 7.50702 12 7.38462 12H2.46154C2.33913 12 2.22174 11.9532 2.13518 11.8698C2.04863 11.7865 2 11.6734 2 11.5556Z" fill="black"/>
<path d="M12.4445 8.68948C13.4247 9.21484 13.9142 9.47779 13.9865 9.85627C14.0045 9.95107 14.0045 10.0481 13.9865 10.1429C13.9148 10.5224 13.4247 10.7849 12.4445 11.3102C11.4643 11.835 10.9748 12.098 10.5849 11.9665C10.4875 11.9336 10.3971 11.8852 10.3176 11.8235C10 11.5759 10 11.0506 10 9.99984C10 8.94913 10 8.42433 10.3176 8.17678C10.397 8.11461 10.4877 8.06675 10.5849 8.03375C10.9743 7.90172 11.4643 8.16467 12.4445 8.68948Z" fill="#054BFF"/>
</svg>
