<svg width="340" height="60" viewBox="0 0 340 60" fill="none" xmlns="http://www.w3.org/2000/svg">
<path fill-rule="evenodd" clip-rule="evenodd" d="M13.625 15C13.625 14.5027 13.8225 14.0258 14.1742 13.6742C14.5258 13.3225 15.0027 13.125 15.5 13.125H60.5C60.9973 13.125 61.4742 13.3225 61.8258 13.6742C62.1775 14.0258 62.375 14.5027 62.375 15C62.375 15.4973 62.1775 15.9742 61.8258 16.3258C61.4742 16.6775 60.9973 16.875 60.5 16.875H15.5C15.0027 16.875 14.5258 16.6775 14.1742 16.3258C13.8225 15.9742 13.625 15.4973 13.625 15ZM13.625 25C13.625 24.5027 13.8225 24.0258 14.1742 23.6742C14.5258 23.3225 15.0027 23.125 15.5 23.125H60.5C60.9973 23.125 61.4742 23.3225 61.8258 23.6742C62.1775 24.0258 62.375 24.5027 62.375 25C62.375 25.4973 62.1775 25.9742 61.8258 26.3258C61.4742 26.6775 60.9973 26.875 60.5 26.875H15.5C15.0027 26.875 14.5258 26.6775 14.1742 26.3258C13.8225 25.9742 13.625 25.4973 13.625 25ZM13.625 35C13.625 34.5027 13.8225 34.0258 14.1742 33.6742C14.5258 33.3225 15.0027 33.125 15.5 33.125H35.5C35.9973 33.125 36.4742 33.3225 36.8258 33.6742C37.1775 34.0258 37.375 34.5027 37.375 35C37.375 35.4973 37.1775 35.9742 36.8258 36.3258C36.4742 36.6775 35.9973 36.875 35.5 36.875H15.5C15.0027 36.875 14.5258 36.6775 14.1742 36.3258C13.8225 35.9742 13.625 35.4973 13.625 35ZM13.625 45C13.625 44.5027 13.8225 44.0258 14.1742 43.6742C14.5258 43.3225 15.0027 43.125 15.5 43.125H35.5C35.9973 43.125 36.4742 43.3225 36.8258 43.6742C37.1775 44.0258 37.375 44.5027 37.375 45C37.375 45.4973 37.1775 45.9742 36.8258 46.3258C36.4742 46.6775 35.9973 46.875 35.5 46.875H15.5C15.0027 46.875 14.5258 46.6775 14.1742 46.3258C13.8225 45.9742 13.625 45.4973 13.625 45Z" fill="black"/>
<path d="M55.1875 35.295C59.3225 37.6825 61.3875 38.8775 61.6925 40.5975C61.7685 41.0283 61.7685 41.4691 61.6925 41.9C61.39 43.625 59.3225 44.8175 55.1875 47.205C51.0525 49.59 48.9875 50.785 47.3425 50.1875C46.9316 50.0382 46.55 49.8183 46.215 49.5375C44.875 48.4125 44.875 46.025 44.875 41.25C44.875 36.475 44.875 34.09 46.215 32.965C46.55 32.6825 46.9325 32.465 47.3425 32.315C48.985 31.715 51.0525 32.91 55.1875 35.295Z" fill="#1452AF"/>
<path d="M98.024 26.616C100.2 26.616 101.912 26.024 103.16 24.84C104.44 23.656 105.08 22.024 105.08 19.944C105.08 17 104.328 14.6 102.824 12.744C101.352 10.856 99.192 9.912 96.344 9.912C94.168 9.912 92.184 10.536 90.392 11.784V41.064L97.832 43.128L96.872 45.048H79.88V43.56L84.392 40.008V10.824L79.4 9.192L80.36 7.272H85.928C89.032 7.272 92.088 7.176 95.096 6.984C97.336 6.856 98.984 6.792 100.04 6.792C102.28 6.792 104.264 7.272 105.992 8.232C107.752 9.16 109.112 10.456 110.072 12.12C111.032 13.784 111.512 15.624 111.512 17.64C111.512 19.88 110.696 21.992 109.064 23.976C107.432 25.96 105.352 27.512 102.824 28.632C100.296 29.752 97.816 30.248 95.384 30.12L93.128 28.488L94.088 26.568H97.976L98.024 26.616ZM129.478 45H116.086V43.512L120.358 40.152V10.632L116.086 7.656V6.168L124.294 3.096H126.118V41.4L130.438 43.08L129.478 45ZM159.773 45H150.653V40.824L145.229 45.096C144.589 45.352 143.789 45.48 142.829 45.48C140.077 45.48 138.077 44.792 136.829 43.416C135.613 42.04 135.005 40.392 135.005 38.472C135.005 37.32 135.421 36.184 136.253 35.064C137.085 33.944 138.269 32.888 139.805 31.896H150.653V28.824C150.653 26.744 150.093 25.272 148.973 24.408C147.885 23.544 146.381 23.112 144.461 23.112C142.477 23.112 140.045 24.312 137.165 26.712L135.725 24.888L142.637 19.416C143.917 19.16 145.453 19.032 147.245 19.032C150.157 19.032 152.413 19.752 154.013 21.192C155.613 22.6 156.413 24.664 156.413 27.384V41.4L160.733 43.08L159.773 45ZM144.365 41.4C146.317 41.4 148.413 40.504 150.653 38.712V33.864H142.157C141.741 34.376 141.437 34.888 141.245 35.4C141.085 35.912 141.005 36.472 141.005 37.08C141.005 38.264 141.309 39.288 141.917 40.152C142.525 40.984 143.341 41.4 144.365 41.4ZM189.922 21L177.778 45L167.794 57.672L165.97 56.232C167.794 54.28 169.17 52.568 170.098 51.096C171.058 49.624 171.73 48.136 172.114 46.632C172.498 45.16 172.69 43.4 172.69 41.352L166.642 26.712L162.178 24.12V22.632L170.386 18.6L172.21 25.848L178.066 40.152L184.834 26.088L178.45 21.432L179.41 19.512H189.922V21ZM204.853 45H191.461V43.512L195.733 40.152V10.632L191.461 7.656V6.168L199.669 3.096H201.493V41.4L205.813 43.08L204.853 45ZM223.532 45H210.14V43.512L214.412 40.152V26.136L210.14 23.16V21.672L218.348 18.6H220.172V41.4L224.492 43.08L223.532 45ZM217.1 4.2C218.06 4.2 218.844 4.552 219.452 5.256C220.092 5.96 220.412 6.84 220.412 7.896C220.412 8.632 220.188 9.336 219.74 10.008C219.292 10.648 218.732 11.16 218.06 11.544C217.388 11.928 216.732 12.12 216.092 12.12C215.132 12.12 214.332 11.768 213.692 11.064C213.084 10.36 212.78 9.48 212.78 8.424C212.78 7.688 213.004 7 213.452 6.36C213.9 5.688 214.46 5.16 215.132 4.776C215.804 4.392 216.46 4.2 217.1 4.2ZM244.252 39.816C244.252 38.92 243.756 38.104 242.764 37.368C241.772 36.6 240.252 35.688 238.204 34.632C236.54 33.768 235.196 33.016 234.172 32.376C233.148 31.736 232.268 31 231.532 30.168C230.828 29.304 230.476 28.376 230.476 27.384C230.476 26.232 230.956 25 231.916 23.688C232.876 22.376 234.06 21.272 235.468 20.376C236.876 19.48 238.188 19.032 239.404 19.032C240.876 19.032 242.572 19.224 244.492 19.608C246.444 19.96 247.852 20.36 248.716 20.808V28.2H246.892C245.868 26.216 244.684 24.68 243.34 23.592C241.996 22.472 240.62 21.912 239.212 21.912C238.22 21.912 237.42 22.184 236.812 22.728C236.204 23.24 235.9 23.896 235.9 24.696C235.9 25.688 236.412 26.584 237.436 27.384C238.492 28.152 240.076 29.064 242.188 30.12C243.82 30.952 245.132 31.672 246.124 32.28C247.116 32.888 247.948 33.608 248.62 34.44C249.324 35.24 249.676 36.136 249.676 37.128C249.676 38.312 249.164 39.56 248.14 40.872C247.148 42.152 245.916 43.24 244.444 44.136C243.004 45.032 241.676 45.48 240.46 45.48C238.892 45.48 237.02 45.304 234.844 44.952C232.7 44.568 231.164 44.152 230.236 43.704V36.312H232.06C233.18 38.296 234.508 39.848 236.044 40.968C237.58 42.056 239.132 42.6 240.7 42.6C241.756 42.6 242.604 42.328 243.244 41.784C243.916 41.24 244.252 40.584 244.252 39.816ZM269.289 45.096C268.553 45.352 267.657 45.48 266.601 45.48C263.945 45.48 261.993 44.792 260.745 43.416C259.529 42.008 258.921 39.848 258.921 36.936V22.92H253.737V20.952L262.857 10.344H264.681V20.952H273.321V22.92H264.681V37.512C264.681 40.104 265.929 41.4 268.425 41.4C269.097 41.4 269.737 41.256 270.345 40.968C270.985 40.68 271.769 40.168 272.697 39.432L274.137 41.256L269.289 45.096ZM293.399 45.096C292.119 45.352 290.583 45.48 288.791 45.48C286.679 45.48 284.775 44.936 283.079 43.848C281.415 42.728 280.103 41.224 279.143 39.336C278.215 37.448 277.751 35.368 277.751 33.096C277.751 30.632 278.503 28.328 280.007 26.184C281.511 24.008 283.383 22.28 285.623 21C287.895 19.688 290.087 19.032 292.199 19.032C295.239 19.032 297.591 20.232 299.255 22.632C300.951 25.032 301.799 28.2 301.799 32.136H284.039C284.231 34.856 284.967 37.08 286.247 38.808C287.559 40.536 289.335 41.4 291.575 41.4C293.655 41.4 296.615 39.784 300.455 36.552L301.895 38.376L293.399 45.096ZM289.415 23.064C285.959 23.064 284.151 25.432 283.991 30.168H295.223C294.935 28.44 294.631 27.128 294.311 26.232C294.023 25.304 293.495 24.552 292.727 23.976C291.991 23.368 290.887 23.064 289.415 23.064ZM325.202 19.08C326.258 19.08 327.186 19.368 327.986 19.944C328.786 20.52 329.41 21.32 329.858 22.344L326.69 26.328H324.866C324.738 25.528 324.498 24.968 324.146 24.648C323.826 24.296 323.378 24.12 322.802 24.12C322.098 24.12 321.346 24.312 320.546 24.696C319.778 25.048 318.898 25.736 317.906 26.76V41.064L324.626 43.128L323.666 45.048H307.874V43.56L312.146 40.2V26.616L307.874 24.12V22.632L316.082 18.6L317.57 24.504L322.562 19.416C323.234 19.16 324.114 19.032 325.202 19.032V19.08Z" fill="#1452AF"/>
</svg>
